# Blender v2.93.6 OBJ File: 'Cockpit.blend'
# www.blender.org
mtllib Cockpit2-Glass.mtl
o Plane
v 0.197695 -0.738626 0.560370
v 0.519286 -0.738626 0.514158
v 0.197695 -0.303217 0.560370
v 0.519286 -0.303217 0.514158
v 0.763732 -0.738626 0.454865
v 0.763732 -0.303217 0.454866
v 1.056645 -0.738626 0.354777
v 1.056645 -0.303217 0.354777
v 1.244147 -0.738626 0.192392
v 1.244147 -0.303217 0.192392
v 1.287405 -0.738626 0.016802
v 1.287405 -0.303217 0.016802
vt 0.000000 0.000000
vt 1.000000 0.000000
vt 1.000000 1.000000
vt 0.000000 1.000000
vt 1.000000 0.000000
vt 1.000000 1.000000
vt 1.000000 0.000000
vt 1.000000 1.000000
vt 1.000000 0.000000
vt 1.000000 1.000000
vt 1.000000 0.000000
vt 1.000000 1.000000
vn 0.1422 -0.0000 0.9898
vn 0.2357 -0.0000 0.9718
vn 0.3233 -0.0000 0.9463
vn 0.6547 -0.0000 0.7559
vn 0.9710 -0.0000 0.2392
usemtl None
s off
f 1/1/1 2/2/1 4/3/1 3/4/1
f 4/3/2 2/2/2 5/5/2 6/6/2
f 6/6/3 5/5/3 7/7/3 8/8/3
f 8/8/4 7/7/4 9/9/4 10/10/4
f 10/10/5 9/9/5 11/11/5 12/12/5
o Plane.001_Plane.002
v 0.197695 -0.738626 -0.542396
v 0.519286 -0.738626 -0.496184
v 0.197695 -0.303217 -0.542396
v 0.519286 -0.303217 -0.496184
v 0.763732 -0.738626 -0.436892
v 0.763732 -0.303217 -0.436892
v 1.056645 -0.738626 -0.336803
v 1.056645 -0.303217 -0.336804
v 1.244147 -0.738626 -0.174419
v 1.244147 -0.303217 -0.174419
v 1.287405 -0.738626 0.001171
v 1.287405 -0.303217 0.001171
v 0.197695 -0.738626 -0.542396
v 0.519286 -0.738626 -0.496184
v 0.197695 -0.303217 -0.542396
v 0.519286 -0.303217 -0.496184
v 0.763732 -0.738626 -0.436892
v 0.763732 -0.303217 -0.436892
v 1.056645 -0.738626 -0.336803
v 1.056645 -0.303217 -0.336804
v 1.244147 -0.738626 -0.174419
v 1.244147 -0.303217 -0.174419
v 1.287405 -0.738626 0.001171
v 1.287405 -0.303217 0.001171
v 1.287405 -0.738626 0.018515
v 1.287405 -0.303217 0.018515
vt 0.000000 0.000000
vt 0.000000 1.000000
vt 1.000000 1.000000
vt 1.000000 0.000000
vt 1.000000 1.000000
vt 1.000000 0.000000
vt 1.000000 1.000000
vt 1.000000 0.000000
vt 1.000000 1.000000
vt 1.000000 0.000000
vt 1.000000 1.000000
vt 1.000000 0.000000
vt 1.000000 0.000000
vt 1.000000 1.000000
vt 0.000000 1.000000
vt 1.000000 1.000000
vt 1.000000 1.000000
vt 1.000000 0.000000
vt 1.000000 1.000000
vt 1.000000 0.000000
vt 1.000000 1.000000
vt 1.000000 0.000000
vt 1.000000 0.000000
vt 0.000000 0.000000
vt 1.000000 1.000000
vt 1.000000 0.000000
vn 0.1422 -0.0000 -0.9898
vn 0.2357 -0.0000 -0.9718
vn 0.3233 -0.0000 -0.9463
vn 0.6547 0.0000 -0.7559
vn 0.9710 -0.0000 -0.2392
vn 0.0000 0.0000 1.0000
vn 1.0000 0.0000 0.0000
usemtl None
s off
f 13/13/6 15/14/6 16/15/6 14/16/6
f 16/15/7 18/17/7 17/18/7 14/16/7
f 18/17/8 20/19/8 19/20/8 17/18/8
f 20/19/9 22/21/9 21/22/9 19/20/9
f 22/21/10 24/23/10 23/24/10 21/22/10
f 21/22/11 33/25/11 34/26/11 22/21/11
f 15/14/11 27/27/11 28/28/11 16/15/11
f 20/19/11 32/29/11 34/26/11 22/21/11
f 17/18/11 29/30/11 30/31/11 18/17/11
f 21/22/11 33/25/11 31/32/11 19/20/11
f 16/15/11 28/28/11 30/31/11 18/17/11
f 24/23/11 36/33/11 35/34/11 23/24/11
f 17/18/11 29/30/11 26/35/11 14/16/11
f 22/21/11 34/26/11 36/33/11 24/23/11
f 19/20/11 31/32/11 32/29/11 20/19/11
f 13/13/11 25/36/11 27/27/11 15/14/11
f 23/24/11 35/34/11 33/25/11 21/22/11
f 18/17/11 30/31/11 32/29/11 20/19/11
f 14/16/11 26/35/11 25/36/11 13/13/11
f 19/20/11 31/32/11 29/30/11 17/18/11
f 14/16/11 26/35/11 28/28/11 16/15/11
f 36/33/12 38/37/12 37/38/12 35/34/12
