# Blender v2.93.6 OBJ File: 'Cockpit.blend'
# www.blender.org
mtllib Cockpit2-Glass.mtl
o Plane
v 0.197695 -0.738626 0.560370
v 0.519286 -0.738626 0.514158
v 0.197695 -0.303217 0.560370
v 0.519286 -0.303217 0.514158
v 0.763732 -0.738626 0.454865
v 0.763732 -0.303217 0.454866
v 1.056645 -0.738626 0.354777
v 1.056645 -0.303217 0.354777
v 1.244147 -0.738626 0.192392
v 1.244147 -0.303217 0.192392
v 1.287405 -0.738626 0.016802
v 1.287405 -0.303217 0.016802
vt 0.000000 0.000000
vt 1.000000 0.000000
vt 1.000000 1.000000
vt 0.000000 1.000000
vt 1.000000 0.000000
vt 1.000000 1.000000
vt 1.000000 0.000000
vt 1.000000 1.000000
vt 1.000000 0.000000
vt 1.000000 1.000000
vt 1.000000 0.000000
vt 1.000000 1.000000
vn 0.1422 -0.0000 0.9898
vn 0.2357 -0.0000 0.9718
vn 0.3233 -0.0000 0.9463
vn 0.6547 -0.0000 0.7559
vn 0.9710 -0.0000 0.2392
usemtl None
s off
f 1/1/1 2/2/1 4/3/1 3/4/1
f 4/3/2 2/2/2 5/5/2 6/6/2
f 6/6/3 5/5/3 7/7/3 8/8/3
f 8/8/4 7/7/4 9/9/4 10/10/4
f 10/10/5 9/9/5 11/11/5 12/12/5
o Plane.001
v 0.197695 -0.738626 -0.548977
v 0.519286 -0.738626 -0.502765
v 0.197695 -0.303217 -0.548977
v 0.519286 -0.303217 -0.502765
v 0.763732 -0.738626 -0.443473
v 0.763732 -0.303217 -0.443473
v 1.056645 -0.738626 -0.343384
v 1.056645 -0.303217 -0.343384
v 1.244147 -0.738626 -0.180999
v 1.244147 -0.303217 -0.180999
v 1.287405 -0.738626 -0.005409
v 1.287405 -0.303217 -0.005409
v 1.290693 -0.773136 0.020955
v 1.290693 -0.337727 0.020955
vt 0.000000 0.000000
vt 1.000000 0.000000
vt 1.000000 1.000000
vt 0.000000 1.000000
vt 1.000000 0.000000
vt 1.000000 1.000000
vt 1.000000 0.000000
vt 1.000000 1.000000
vt 1.000000 0.000000
vt 1.000000 1.000000
vt 1.000000 0.000000
vt 1.000000 1.000000
vt 1.000000 0.000000
vt 1.000000 1.000000
vn -0.1422 0.0000 0.9898
vn -0.2357 -0.0000 0.9718
vn -0.3233 -0.0000 0.9463
vn -0.6547 0.0000 0.7559
vn -0.9710 0.0000 0.2392
vn -0.9923 0.0000 0.1238
usemtl None
s off
f 13/13/6 14/14/6 16/15/6 15/16/6
f 16/15/7 14/14/7 17/17/7 18/18/7
f 18/18/8 17/17/8 19/19/8 20/20/8
f 20/20/9 19/19/9 21/21/9 22/22/9
f 22/22/10 21/21/10 23/23/10 24/24/10
f 24/24/11 23/23/11 25/25/11 26/26/11
